<mxfile host="app.diagrams.net" modified="2021-10-09T04:11:45.540Z" agent="5.0 (Macintosh; Intel Mac OS X 10_15_7) AppleWebKit/537.36 (KHTML, like Gecko) Chrome/94.0.4606.71 Safari/537.36" etag="Gwhmq4mthhD6EBdQvsIa" version="15.0.6" type="github">
  <diagram id="qTsjgfplFUIxR4buYUZ8" name="第 1 页">
    <mxGraphModel dx="2066" dy="1185" grid="1" gridSize="10" guides="1" tooltips="1" connect="1" arrows="1" fold="1" page="1" pageScale="1" pageWidth="827" pageHeight="1169" math="0" shadow="0">
      <root>
        <mxCell id="0" />
        <mxCell id="1" parent="0" />
        <mxCell id="3v5mlLSHxFKGKclRbbPZ-1" value="" style="rounded=0;whiteSpace=wrap;html=1;fillColor=#f5f5f5;strokeColor=#666666;fontColor=#333333;" parent="1" vertex="1">
          <mxGeometry x="100" y="120" width="310" height="630" as="geometry" />
        </mxCell>
        <mxCell id="3v5mlLSHxFKGKclRbbPZ-3" value="" style="rounded=1;whiteSpace=wrap;html=1;" parent="1" vertex="1">
          <mxGeometry x="460" y="120" width="90" height="630" as="geometry" />
        </mxCell>
        <mxCell id="3v5mlLSHxFKGKclRbbPZ-4" value="" style="rounded=1;whiteSpace=wrap;html=1;" parent="1" vertex="1">
          <mxGeometry x="590" y="120" width="90" height="630" as="geometry" />
        </mxCell>
        <mxCell id="3v5mlLSHxFKGKclRbbPZ-9" value="&lt;span style=&quot;font-size: 20px;&quot;&gt;栈桢2&lt;/span&gt;" style="rounded=0;whiteSpace=wrap;html=1;fillColor=#f5f5f5;strokeColor=#666666;fontColor=#333333;fontSize=20;" parent="1" vertex="1">
          <mxGeometry x="100" y="630" width="310" height="60" as="geometry" />
        </mxCell>
        <mxCell id="3v5mlLSHxFKGKclRbbPZ-10" value="&lt;span style=&quot;font-size: 20px;&quot;&gt;栈桢3&lt;/span&gt;" style="rounded=0;whiteSpace=wrap;html=1;fillColor=#f5f5f5;strokeColor=#666666;fontColor=#333333;fontSize=20;" parent="1" vertex="1">
          <mxGeometry x="100" y="570" width="310" height="60" as="geometry" />
        </mxCell>
        <mxCell id="3v5mlLSHxFKGKclRbbPZ-11" value="栈桢n" style="rounded=0;whiteSpace=wrap;html=1;fillColor=#f5f5f5;strokeColor=#666666;fontColor=#333333;fontSize=20;" parent="1" vertex="1">
          <mxGeometry x="100" y="510" width="310" height="60" as="geometry" />
        </mxCell>
        <mxCell id="3v5mlLSHxFKGKclRbbPZ-12" value="" style="whiteSpace=wrap;html=1;aspect=fixed;" parent="1" vertex="1">
          <mxGeometry x="100" y="200" width="310" height="310" as="geometry" />
        </mxCell>
        <mxCell id="3v5mlLSHxFKGKclRbbPZ-13" value="当前线程" style="text;html=1;strokeColor=none;fillColor=none;align=center;verticalAlign=middle;whiteSpace=wrap;rounded=0;fontSize=20;" parent="1" vertex="1">
          <mxGeometry x="200" y="80" width="90" height="20" as="geometry" />
        </mxCell>
        <mxCell id="3v5mlLSHxFKGKclRbbPZ-2" value="局部变量表" style="rounded=1;whiteSpace=wrap;html=1;fontSize=20;" parent="1" vertex="1">
          <mxGeometry x="140" y="220" width="230" height="60" as="geometry" />
        </mxCell>
        <mxCell id="3v5mlLSHxFKGKclRbbPZ-14" value="操作栈" style="rounded=1;whiteSpace=wrap;html=1;fontSize=20;" parent="1" vertex="1">
          <mxGeometry x="140" y="290" width="230" height="60" as="geometry" />
        </mxCell>
        <mxCell id="3v5mlLSHxFKGKclRbbPZ-15" value="动态连接" style="rounded=1;whiteSpace=wrap;html=1;fontSize=20;" parent="1" vertex="1">
          <mxGeometry x="140" y="360" width="230" height="60" as="geometry" />
        </mxCell>
        <mxCell id="3v5mlLSHxFKGKclRbbPZ-16" value="返回地址" style="rounded=1;whiteSpace=wrap;html=1;fontSize=20;" parent="1" vertex="1">
          <mxGeometry x="140" y="440" width="230" height="60" as="geometry" />
        </mxCell>
        <mxCell id="3v5mlLSHxFKGKclRbbPZ-18" value="&lt;span style=&quot;font-size: 20px;&quot;&gt;栈桢1&lt;/span&gt;" style="rounded=0;whiteSpace=wrap;html=1;fontSize=20;fillColor=#f5f5f5;strokeColor=#666666;fontColor=#333333;" parent="1" vertex="1">
          <mxGeometry x="100" y="690" width="310" height="60" as="geometry" />
        </mxCell>
        <mxCell id="3v5mlLSHxFKGKclRbbPZ-21" value="当前栈桢" style="rounded=0;whiteSpace=wrap;html=1;fontSize=20;fillColor=#f5f5f5;strokeColor=#666666;fontColor=#333333;" parent="1" vertex="1">
          <mxGeometry x="100" y="120" width="310" height="80" as="geometry" />
        </mxCell>
        <mxCell id="3v5mlLSHxFKGKclRbbPZ-22" value="线程2" style="text;html=1;strokeColor=none;fillColor=none;align=center;verticalAlign=middle;whiteSpace=wrap;rounded=0;fontSize=20;" parent="1" vertex="1">
          <mxGeometry x="460" y="80" width="90" height="20" as="geometry" />
        </mxCell>
        <mxCell id="3v5mlLSHxFKGKclRbbPZ-23" value="线程1" style="text;html=1;strokeColor=none;fillColor=none;align=center;verticalAlign=middle;whiteSpace=wrap;rounded=0;fontSize=20;" parent="1" vertex="1">
          <mxGeometry x="590" y="80" width="90" height="20" as="geometry" />
        </mxCell>
      </root>
    </mxGraphModel>
  </diagram>
</mxfile>
